STARTFONT 2.1
COMMENT This font is still under development.
COMMENT You can use, copy, modify, distribute this file for free.
COMMENT
COMMENT This font was created by modifying fg-20.bdf distributed with
COMMENT X.V11R3 under the directory contrib/fonts/bdf/oldx11.
COMMENT The comment below is the original one.
COMMENT -------------------------------------------------------------
COMMENT the Lisp Machine name for this font was "20fg.ast"
COMMENT -------------------------------------------------------------
COMMENT 91.12.14 modified by K.Handa <handa@etl.go.jp>
COMMENT   - ISO8859-1 Latin-1 glyphs are added.
COMMENT This font is very suitable when used with:
COMMENT   -jis-fixed-medium-r-normal--24-230-75-75-c-240-jisx0208.1983-0
COMMENT 92.06.23 modified by Takahashi N. <ntakahas@etl.go.jp>
COMMENT 92.07.09 modified by Takahashi N. <ntakahas@etl.go.jp>
COMMENT   - all BBX are changed to 12 24 0 -2
COMMENT 94.09.14 modified by Takahashi N. <ntakahas@etl.go.jp>
COMMENT   - changed to VISCII1-1
FONT -ETL-Fixed-Medium-R-Normal--24-240-72-72-C-120-VISCII1.1-1
SIZE 24 72 72
FONTBOUNDINGBOX 12 24 0 -2
STARTPROPERTIES 19
FONTNAME_REGISTRY ""
FOUNDRY "ETL"
FAMILY_NAME "Fixed"
WEIGHT_NAME "Medium"
SLANT "R"
SETWIDTH_NAME "Normal"
ADD_STYLE_NAME ""
PIXEL_SIZE 24
POINT_SIZE 240
RESOLUTION_X 72
RESOLUTION_Y 72
SPACING "C"
AVERAGE_WIDTH 120
CHARSET_REGISTRY "VISCII1"
CHARSET_ENCODING "1"
DEFAULT_CHAR 32
FONT_DESCENT 2
FONT_ASCENT 22
_MULE_BASELINE_OFFSET -3
ENDPROPERTIES
CHARS 229
STARTCHAR C002
ENCODING 2
SWIDTH 500 0
DWIDTH 12 0
BBX 12 24 0 -2
BITMAP
0700
0100
0200
3060
1fc0
0f80
1fc0
38e0
3060
3060
3060
3fe0
3fe0
3060
3060
3060
3060
3060
3060
0000
0000
0000
0000
0000
ENDCHAR
STARTCHAR C005
ENCODING 5
SWIDTH 500 0
DWIDTH 12 0
BBX 12 24 0 -2
BITMAP
1c20
2620
23c0
3060
1fc0
0f80
1fc0
38e0
3060
3060
3060
3fe0
3fe0
3060
3060
3060
3060
3060
3060
0000
0000
0000
0000
0000
ENDCHAR
STARTCHAR C006
ENCODING 6
SWIDTH 500 0
DWIDTH 12 0
BBX 12 24 0 -2
BITMAP
1c20
2620
23c0
0f80
18c0
2fa0
1fc0
38e0
3060
3060
3060
3fe0
3fe0
3060
3060
3060
3060
3060
3060
0000
0000
0000
0000
0000
ENDCHAR
STARTCHAR C024
ENCODING 20
SWIDTH 500 0
DWIDTH 12 0
BBX 12 24 0 -2
BITMAP
0000
0700
0100
0200
0000
6060
6060
30c0
30c0
1980
1f80
0f00
0600
0600
0600
0600
0600
0600
0600
0000
0000
0000
0000
0000
ENDCHAR
STARTCHAR C031
ENCODING 25
SWIDTH 500 0
DWIDTH 12 0
BBX 12 24 0 -2
BITMAP
0000
1c40
2640
2380
0000
6060
6060
30c0
30c0
1980
1f80
0f00
0600
0600
0600
0600
0600
0600
0600
0000
0000
0000
0000
0000
ENDCHAR
STARTCHAR C036
ENCODING 30
SWIDTH 500 0
DWIDTH 12 0
BBX 12 24 0 -2
BITMAP
0000
0000
0000
0000
0000
6060
6060
30c0
30c0
1980
1f80
0f00
0600
0600
0600
0600
0600
0600
0600
0000
0600
0600
0000
0000
ENDCHAR
STARTCHAR C040
ENCODING 32
SWIDTH 500 0
DWIDTH 12 0
BBX 12 24 0 -2
BITMAP
0000
0000
0000
0000
0000
0000
0000
0000
0000
0000
0000
0000
0000
0000
0000
0000
0000
0000
0000
0000
0000
0000
0000
0000
ENDCHAR
STARTCHAR !
ENCODING 33
SWIDTH 500 0
DWIDTH 12 0
BBX 12 24 0 -2
BITMAP
0000
0000
0000
0000
0000
0600
0600
0600
0600
0600
0600
0600
0600
0600
0600
0000
0000
0600
0f00
0600
0000
0000
0000
0000
ENDCHAR
STARTCHAR "
ENCODING 34
SWIDTH 500 0
DWIDTH 12 0
BBX 12 24 0 -2
BITMAP
0000
0000
0000
0000
1980
1980
1980
1980
1980
0000
0000
0000
0000
0000
0000
0000
0000
0000
0000
0000
0000
0000
0000
0000
ENDCHAR
STARTCHAR #
ENCODING 35
SWIDTH 500 0
DWIDTH 12 0
BBX 12 24 0 -2
BITMAP
0000
0000
0000
0000
0000
0cc0
0cc0
0cc0
3fe0
3fe0
1980
1980
1980
1980
7fc0
7fc0
3300
3300
3300
0000
0000
0000
0000
0000
ENDCHAR
STARTCHAR $
ENCODING 36
SWIDTH 500 0
DWIDTH 12 0
BBX 12 24 0 -2
BITMAP
0000
0000
0000
0000
0000
0600
1f80
3fe0
6660
6600
3e00
1f80
07c0
0660
0660
6660
7fc0
3f80
0600
0000
0000
0000
0000
0000
ENDCHAR
STARTCHAR %
ENCODING 37
SWIDTH 500 0
DWIDTH 12 0
BBX 12 24 0 -2
BITMAP
0000
0000
0000
0000
0000
38c0
7cc0
6d80
7d80
3b00
0300
0600
0600
0c00
0dc0
1be0
1b60
33e0
31c0
0000
0000
0000
0000
0000
ENDCHAR
STARTCHAR &
ENCODING 38
SWIDTH 500 0
DWIDTH 12 0
BBX 12 24 0 -2
BITMAP
0000
0000
0000
0000
0000
0700
0f80
1dc0
18c0
1980
0f80
1f00
3e00
7360
61e0
61c0
6180
3fe0
1e60
0000
0000
0000
0000
0000
ENDCHAR
STARTCHAR '
ENCODING 39
SWIDTH 500 0
DWIDTH 12 0
BBX 12 24 0 -2
BITMAP
0000
0000
0000
0600
0f00
0f00
0300
0300
0600
0c00
0000
0000
0000
0000
0000
0000
0000
0000
0000
0000
0000
0000
0000
0000
ENDCHAR
STARTCHAR (
ENCODING 40
SWIDTH 500 0
DWIDTH 12 0
BBX 12 24 0 -2
BITMAP
0000
0000
0000
0000
0000
0180
0300
0700
0600
0e00
0c00
0c00
0c00
0c00
0e00
0600
0700
0300
0180
0000
0000
0000
0000
0000
ENDCHAR
STARTCHAR )
ENCODING 41
SWIDTH 500 0
DWIDTH 12 0
BBX 12 24 0 -2
BITMAP
0000
0000
0000
0000
0000
1800
0c00
0e00
0600
0700
0300
0300
0300
0300
0700
0600
0e00
0c00
1800
0000
0000
0000
0000
0000
ENDCHAR
STARTCHAR *
ENCODING 42
SWIDTH 500 0
DWIDTH 12 0
BBX 12 24 0 -2
BITMAP
0000
0000
0000
0000
0000
0000
0000
0600
0600
6660
76e0
1f80
0600
1f80
76e0
6660
0600
0600
0000
0000
0000
0000
0000
0000
ENDCHAR
STARTCHAR +
ENCODING 43
SWIDTH 500 0
DWIDTH 12 0
BBX 12 24 0 -2
BITMAP
0000
0000
0000
0000
0000
0000
0000
0000
0600
0600
0600
0600
7fe0
7fe0
0600
0600
0600
0600
0000
0000
0000
0000
0000
0000
ENDCHAR
STARTCHAR ,
ENCODING 44
SWIDTH 500 0
DWIDTH 12 0
BBX 12 24 0 -2
BITMAP
0000
0000
0000
0000
0000
0000
0000
0000
0000
0000
0000
0000
0000
0000
0000
0600
0f00
0f00
0300
0300
0600
0c00
0000
0000
ENDCHAR
STARTCHAR -
ENCODING 45
SWIDTH 500 0
DWIDTH 12 0
BBX 12 24 0 -2
BITMAP
0000
0000
0000
0000
0000
0000
0000
0000
0000
0000
0000
0000
7fe0
7fe0
0000
0000
0000
0000
0000
0000
0000
0000
0000
0000
ENDCHAR
STARTCHAR .
ENCODING 46
SWIDTH 500 0
DWIDTH 12 0
BBX 12 24 0 -2
BITMAP
0000
0000
0000
0000
0000
0000
0000
0000
0000
0000
0000
0000
0000
0000
0000
0600
0f00
0f00
0600
0000
0000
0000
0000
0000
ENDCHAR
STARTCHAR /
ENCODING 47
SWIDTH 500 0
DWIDTH 12 0
BBX 12 24 0 -2
BITMAP
0000
0000
0000
0000
0000
00c0
00c0
0180
0180
0300
0300
0600
0600
0c00
0c00
1800
1800
3000
3000
0000
0000
0000
0000
0000
ENDCHAR
STARTCHAR 0
ENCODING 48
SWIDTH 500 0
DWIDTH 12 0
BBX 12 24 0 -2
BITMAP
0000
0000
0000
0000
0000
0f00
1f80
39c0
30c0
31c0
33c0
36c0
3cc0
38c0
30c0
30c0
39c0
1f80
0f00
0000
0000
0000
0000
0000
ENDCHAR
STARTCHAR 1
ENCODING 49
SWIDTH 500 0
DWIDTH 12 0
BBX 12 24 0 -2
BITMAP
0000
0000
0000
0000
0000
0600
0e00
1e00
3600
0600
0600
0600
0600
0600
0600
0600
0600
3fc0
3fc0
0000
0000
0000
0000
0000
ENDCHAR
STARTCHAR 2
ENCODING 50
SWIDTH 500 0
DWIDTH 12 0
BBX 12 24 0 -2
BITMAP
0000
0000
0000
0000
0000
0f80
1fc0
30e0
3060
0060
00c0
0180
0300
0600
0c00
1800
3000
3fe0
3fe0
0000
0000
0000
0000
0000
ENDCHAR
STARTCHAR 3
ENCODING 51
SWIDTH 500 0
DWIDTH 12 0
BBX 12 24 0 -2
BITMAP
0000
0000
0000
0000
0000
0f80
1fc0
30e0
3060
0060
00c0
0780
07c0
0060
0060
3060
30e0
1fc0
0f80
0000
0000
0000
0000
0000
ENDCHAR
STARTCHAR 4
ENCODING 52
SWIDTH 500 0
DWIDTH 12 0
BBX 12 24 0 -2
BITMAP
0000
0000
0000
0000
0000
0300
0300
0600
0600
0d80
0d80
1980
1980
3180
3fe0
3fe0
0180
0180
0180
0000
0000
0000
0000
0000
ENDCHAR
STARTCHAR 5
ENCODING 53
SWIDTH 500 0
DWIDTH 12 0
BBX 12 24 0 -2
BITMAP
0000
0000
0000
0000
0000
3fc0
3fc0
3000
3000
3000
3f80
3fc0
00e0
0060
0060
3060
30e0
1fc0
0f80
0000
0000
0000
0000
0000
ENDCHAR
STARTCHAR 6
ENCODING 54
SWIDTH 500 0
DWIDTH 12 0
BBX 12 24 0 -2
BITMAP
0000
0000
0000
0000
0000
0f80
1fc0
3860
3060
3000
3780
3fc0
38e0
3060
3060
3060
38e0
1fc0
0f80
0000
0000
0000
0000
0000
ENDCHAR
STARTCHAR 7
ENCODING 55
SWIDTH 500 0
DWIDTH 12 0
BBX 12 24 0 -2
BITMAP
0000
0000
0000
0000
0000
3fe0
3fe0
00c0
00c0
0180
0180
0300
0300
0600
0600
0c00
0c00
1800
1800
0000
0000
0000
0000
0000
ENDCHAR
STARTCHAR 8
ENCODING 56
SWIDTH 500 0
DWIDTH 12 0
BBX 12 24 0 -2
BITMAP
0000
0000
0000
0000
0000
0f00
1f80
30c0
30c0
30c0
1f80
1f80
39c0
70e0
6060
6060
70e0
3fc0
1f80
0000
0000
0000
0000
0000
ENDCHAR
STARTCHAR 9
ENCODING 57
SWIDTH 500 0
DWIDTH 12 0
BBX 12 24 0 -2
BITMAP
0000
0000
0000
0000
0000
0f80
1fc0
38e0
3060
3060
38e0
1fe0
0f60
0060
0060
3060
30e0
1fc0
0f80
0000
0000
0000
0000
0000
ENDCHAR
STARTCHAR :
ENCODING 58
SWIDTH 500 0
DWIDTH 12 0
BBX 12 24 0 -2
BITMAP
0000
0000
0000
0000
0000
0000
0000
0000
0600
0f00
0f00
0600
0000
0000
0000
0600
0f00
0f00
0600
0000
0000
0000
0000
0000
ENDCHAR
STARTCHAR ;
ENCODING 59
SWIDTH 500 0
DWIDTH 12 0
BBX 12 24 0 -2
BITMAP
0000
0000
0000
0000
0000
0000
0000
0000
0600
0f00
0f00
0600
0000
0000
0000
0600
0f00
0f00
0300
0300
0600
0c00
0000
0000
ENDCHAR
STARTCHAR <
ENCODING 60
SWIDTH 500 0
DWIDTH 12 0
BBX 12 24 0 -2
BITMAP
0000
0000
0000
0000
0000
0000
0000
0000
0060
01c0
0700
1e00
7800
7800
1e00
0780
01c0
0060
0000
0000
0000
0000
0000
0000
ENDCHAR
STARTCHAR =
ENCODING 61
SWIDTH 500 0
DWIDTH 12 0
BBX 12 24 0 -2
BITMAP
0000
0000
0000
0000
0000
0000
0000
0000
0000
0000
7fe0
7fe0
0000
0000
7fe0
7fe0
0000
0000
0000
0000
0000
0000
0000
0000
ENDCHAR
STARTCHAR >
ENCODING 62
SWIDTH 500 0
DWIDTH 12 0
BBX 12 24 0 -2
BITMAP
0000
0000
0000
0000
0000
0000
0000
0000
6000
3800
0e00
0780
01e0
01e0
0780
0e00
3800
6000
0000
0000
0000
0000
0000
0000
ENDCHAR
STARTCHAR ?
ENCODING 63
SWIDTH 500 0
DWIDTH 12 0
BBX 12 24 0 -2
BITMAP
0000
0000
0000
0000
0000
0f00
1f80
39c0
20c0
00c0
0180
0300
0600
0600
0600
0000
0000
0600
0f00
0600
0000
0000
0000
0000
ENDCHAR
STARTCHAR @
ENCODING 64
SWIDTH 500 0
DWIDTH 12 0
BBX 12 24 0 -2
BITMAP
0000
0000
0000
0000
0000
0f80
1fc0
3860
3060
33e0
37e0
3660
3660
3660
37e0
33c0
3800
1fe0
0fe0
0000
0000
0000
0000
0000
ENDCHAR
STARTCHAR A
ENCODING 65
SWIDTH 500 0
DWIDTH 12 0
BBX 12 24 0 -2
BITMAP
0000
0000
0000
0000
0000
0f80
1fc0
38e0
3060
3060
3060
3fe0
3fe0
3060
3060
3060
3060
3060
3060
0000
0000
0000
0000
0000
ENDCHAR
STARTCHAR B
ENCODING 66
SWIDTH 500 0
DWIDTH 12 0
BBX 12 24 0 -2
BITMAP
0000
0000
0000
0000
0000
3f00
3f80
31c0
30c0
30c0
3180
3f80
3fc0
30c0
3060
3060
30e0
3fc0
3f80
0000
0000
0000
0000
0000
ENDCHAR
STARTCHAR C
ENCODING 67
SWIDTH 500 0
DWIDTH 12 0
BBX 12 24 0 -2
BITMAP
0000
0000
0000
0000
0000
0f80
1fc0
38e0
3060
3000
3000
3000
3000
3000
3000
3060
38e0
1fc0
0f80
0000
0000
0000
0000
0000
ENDCHAR
STARTCHAR D
ENCODING 68
SWIDTH 500 0
DWIDTH 12 0
BBX 12 24 0 -2
BITMAP
0000
0000
0000
0000
0000
3f80
3fc0
30e0
3060
3060
3060
3060
3060
3060
3060
3060
30e0
3fc0
3f80
0000
0000
0000
0000
0000
ENDCHAR
STARTCHAR E
ENCODING 69
SWIDTH 500 0
DWIDTH 12 0
BBX 12 24 0 -2
BITMAP
0000
0000
0000
0000
0000
3fe0
3fe0
3000
3000
3000
3000
3f80
3f80
3000
3000
3000
3000
3fe0
3fe0
0000
0000
0000
0000
0000
ENDCHAR
STARTCHAR F
ENCODING 70
SWIDTH 500 0
DWIDTH 12 0
BBX 12 24 0 -2
BITMAP
0000
0000
0000
0000
0000
3fe0
3fe0
3000
3000
3000
3000
3f80
3f80
3000
3000
3000
3000
3000
3000
0000
0000
0000
0000
0000
ENDCHAR
STARTCHAR G
ENCODING 71
SWIDTH 500 0
DWIDTH 12 0
BBX 12 24 0 -2
BITMAP
0000
0000
0000
0000
0000
0f80
1fc0
38e0
3060
3000
3000
3000
31e0
31e0
3060
3060
38e0
1fc0
0f80
0000
0000
0000
0000
0000
ENDCHAR
STARTCHAR H
ENCODING 72
SWIDTH 500 0
DWIDTH 12 0
BBX 12 24 0 -2
BITMAP
0000
0000
0000
0000
0000
3060
3060
3060
3060
3060
3060
3fe0
3fe0
3060
3060
3060
3060
3060
3060
0000
0000
0000
0000
0000
ENDCHAR
STARTCHAR I
ENCODING 73
SWIDTH 500 0
DWIDTH 12 0
BBX 12 24 0 -2
BITMAP
0000
0000
0000
0000
0000
1f80
1f80
0600
0600
0600
0600
0600
0600
0600
0600
0600
0600
1f80
1f80
0000
0000
0000
0000
0000
ENDCHAR
STARTCHAR J
ENCODING 74
SWIDTH 500 0
DWIDTH 12 0
BBX 12 24 0 -2
BITMAP
0000
0000
0000
0000
0000
0060
0060
0060
0060
0060
0060
0060
0060
0060
0060
3060
30e0
1fc0
0f80
0000
0000
0000
0000
0000
ENDCHAR
STARTCHAR K
ENCODING 75
SWIDTH 500 0
DWIDTH 12 0
BBX 12 24 0 -2
BITMAP
0000
0000
0000
0000
0000
3060
30c0
3180
3300
3600
3c00
3800
3c00
3600
3300
3180
30c0
3060
3020
0000
0000
0000
0000
0000
ENDCHAR
STARTCHAR L
ENCODING 76
SWIDTH 500 0
DWIDTH 12 0
BBX 12 24 0 -2
BITMAP
0000
0000
0000
0000
0000
3000
3000
3000
3000
3000
3000
3000
3000
3000
3000
3000
3000
3fe0
3fe0
0000
0000
0000
0000
0000
ENDCHAR
STARTCHAR M
ENCODING 77
SWIDTH 500 0
DWIDTH 12 0
BBX 12 24 0 -2
BITMAP
0000
0000
0000
0000
0000
3060
38e0
38e0
3de0
3fe0
3760
3760
3260
3060
3060
3060
3060
3060
3060
0000
0000
0000
0000
0000
ENDCHAR
STARTCHAR N
ENCODING 78
SWIDTH 500 0
DWIDTH 12 0
BBX 12 24 0 -2
BITMAP
0000
0000
0000
0000
0000
3060
3860
3860
3c60
3c60
3660
3660
3360
3360
31e0
31e0
30e0
30e0
3060
0000
0000
0000
0000
0000
ENDCHAR
STARTCHAR O
ENCODING 79
SWIDTH 500 0
DWIDTH 12 0
BBX 12 24 0 -2
BITMAP
0000
0000
0000
0000
0000
0f80
1fc0
38e0
3060
3060
3060
3060
3060
3060
3060
3060
38e0
1fc0
0f80
0000
0000
0000
0000
0000
ENDCHAR
STARTCHAR P
ENCODING 80
SWIDTH 500 0
DWIDTH 12 0
BBX 12 24 0 -2
BITMAP
0000
0000
0000
0000
0000
3f80
3fc0
30e0
3060
3060
30e0
3fc0
3f80
3000
3000
3000
3000
3000
3000
0000
0000
0000
0000
0000
ENDCHAR
STARTCHAR Q
ENCODING 81
SWIDTH 500 0
DWIDTH 12 0
BBX 12 24 0 -2
BITMAP
0000
0000
0000
0000
0000
0f80
1fc0
38e0
3060
3060
3060
3060
3060
3060
3060
31e0
39e0
1fc0
0ff0
0030
0000
0000
0000
0000
ENDCHAR
STARTCHAR R
ENCODING 82
SWIDTH 500 0
DWIDTH 12 0
BBX 12 24 0 -2
BITMAP
0000
0000
0000
0000
0000
3f80
3fc0
30e0
3060
3060
30e0
3fc0
3f80
3180
3180
30c0
30c0
3060
3060
0000
0000
0000
0000
0000
ENDCHAR
STARTCHAR S
ENCODING 83
SWIDTH 500 0
DWIDTH 12 0
BBX 12 24 0 -2
BITMAP
0000
0000
0000
0000
0000
0f80
1fc0
30e0
3060
3000
3800
1f80
0fc0
00e0
0060
3060
30e0
3fc0
1f80
0000
0000
0000
0000
0000
ENDCHAR
STARTCHAR T
ENCODING 84
SWIDTH 500 0
DWIDTH 12 0
BBX 12 24 0 -2
BITMAP
0000
0000
0000
0000
0000
7fe0
7fe0
0600
0600
0600
0600
0600
0600
0600
0600
0600
0600
0600
0600
0000
0000
0000
0000
0000
ENDCHAR
STARTCHAR U
ENCODING 85
SWIDTH 500 0
DWIDTH 12 0
BBX 12 24 0 -2
BITMAP
0000
0000
0000
0000
0000
3060
3060
3060
3060
3060
3060
3060
3060
3060
3060
3060
38e0
1fc0
0f80
0000
0000
0000
0000
0000
ENDCHAR
STARTCHAR V
ENCODING 86
SWIDTH 500 0
DWIDTH 12 0
BBX 12 24 0 -2
BITMAP
0000
0000
0000
0000
0000
6060
6060
6060
30c0
30c0
30c0
1980
1980
1980
0900
0f00
0f00
0600
0600
0000
0000
0000
0000
0000
ENDCHAR
STARTCHAR W
ENCODING 87
SWIDTH 500 0
DWIDTH 12 0
BBX 12 24 0 -2
BITMAP
0000
0000
0000
0000
0000
3060
3060
3060
3060
3060
3060
3260
3760
3760
3de0
3de0
38e0
38e0
3060
0000
0000
0000
0000
0000
ENDCHAR
STARTCHAR X
ENCODING 88
SWIDTH 500 0
DWIDTH 12 0
BBX 12 24 0 -2
BITMAP
0000
0000
0000
0000
0000
3060
3060
18c0
18c0
0d80
0d80
0700
0700
0d80
0d80
18c0
18c0
3060
3060
0000
0000
0000
0000
0000
ENDCHAR
STARTCHAR Y
ENCODING 89
SWIDTH 500 0
DWIDTH 12 0
BBX 12 24 0 -2
BITMAP
0000
0000
0000
0000
0000
6060
6060
30c0
30c0
1980
1f80
0f00
0600
0600
0600
0600
0600
0600
0600
0000
0000
0000
0000
0000
ENDCHAR
STARTCHAR Z
ENCODING 90
SWIDTH 500 0
DWIDTH 12 0
BBX 12 24 0 -2
BITMAP
0000
0000
0000
0000
0000
7fe0
7fe0
0060
00e0
01c0
0380
0700
0e00
1c00
3800
7000
6000
7fe0
7fe0
0000
0000
0000
0000
0000
ENDCHAR
STARTCHAR [
ENCODING 91
SWIDTH 500 0
DWIDTH 12 0
BBX 12 24 0 -2
BITMAP
0000
0000
0000
0000
0f80
0f80
0c00
0c00
0c00
0c00
0c00
0c00
0c00
0c00
0c00
0c00
0c00
0f80
0f80
0000
0000
0000
0000
0000
ENDCHAR
STARTCHAR \
ENCODING 92
SWIDTH 500 0
DWIDTH 12 0
BBX 12 24 0 -2
BITMAP
0000
0000
0000
0000
0000
3000
3000
1800
1800
0c00
0c00
0600
0600
0300
0300
0180
0180
00c0
00c0
0000
0000
0000
0000
0000
ENDCHAR
STARTCHAR ]
ENCODING 93
SWIDTH 500 0
DWIDTH 12 0
BBX 12 24 0 -2
BITMAP
0000
0000
0000
0000
1f00
1f00
0300
0300
0300
0300
0300
0300
0300
0300
0300
0300
0300
1f00
1f00
0000
0000
0000
0000
0000
ENDCHAR
STARTCHAR ^
ENCODING 94
SWIDTH 500 0
DWIDTH 12 0
BBX 12 24 0 -2
BITMAP
0000
0000
0000
0000
0200
0700
0d80
18c0
3060
0000
0000
0000
0000
0000
0000
0000
0000
0000
0000
0000
0000
0000
0000
0000
ENDCHAR
STARTCHAR _
ENCODING 95
SWIDTH 500 0
DWIDTH 12 0
BBX 12 24 0 -2
BITMAP
0000
0000
0000
0000
0000
0000
0000
0000
0000
0000
0000
0000
0000
0000
0000
0000
0000
0000
0000
0000
fff0
fff0
0000
0000
ENDCHAR
STARTCHAR `
ENCODING 96
SWIDTH 500 0
DWIDTH 12 0
BBX 12 24 0 -2
BITMAP
0000
0000
0000
0300
0600
0c00
0c00
0f00
0f00
0600
0000
0000
0000
0000
0000
0000
0000
0000
0000
0000
0000
0000
0000
0000
ENDCHAR
STARTCHAR A
ENCODING 97
SWIDTH 500 0
DWIDTH 12 0
BBX 12 24 0 -2
BITMAP
0000
0000
0000
0000
0000
0000
0000
0000
0780
0fc0
1860
0060
07e0
1fe0
3060
30e0
31e0
3f60
1e60
0000
0000
0000
0000
0000
ENDCHAR
STARTCHAR B
ENCODING 98
SWIDTH 500 0
DWIDTH 12 0
BBX 12 24 0 -2
BITMAP
0000
0000
0000
0000
0000
3000
3000
3000
3000
3380
37c0
3ce0
3860
3060
3060
3860
3ce0
37c0
3380
0000
0000
0000
0000
0000
ENDCHAR
STARTCHAR C
ENCODING 99
SWIDTH 500 0
DWIDTH 12 0
BBX 12 24 0 -2
BITMAP
0000
0000
0000
0000
0000
0000
0000
0000
0000
0fc0
1fc0
3860
3060
3000
3000
3000
3860
1fe0
0fc0
0000
0000
0000
0000
0000
ENDCHAR
STARTCHAR D
ENCODING 100
SWIDTH 500 0
DWIDTH 12 0
BBX 12 24 0 -2
BITMAP
0000
0000
0000
0000
0000
0060
0060
0060
0060
0f60
1fe0
38e0
3060
3060
3060
30e0
31e0
1f60
0e60
0000
0000
0000
0000
0000
ENDCHAR
STARTCHAR E
ENCODING 101
SWIDTH 500 0
DWIDTH 12 0
BBX 12 24 0 -2
BITMAP
0000
0000
0000
0000
0000
0000
0000
0000
0000
0f80
1fc0
3860
3060
3fe0
3fe0
3000
3060
1fe0
0fc0
0000
0000
0000
0000
0000
ENDCHAR
STARTCHAR F
ENCODING 102
SWIDTH 500 0
DWIDTH 12 0
BBX 12 24 0 -2
BITMAP
0000
0000
0000
0000
0000
0380
0780
0600
0600
0600
1f80
1f80
0600
0600
0600
0600
0600
0600
0600
0000
0000
0000
0000
0000
ENDCHAR
STARTCHAR G
ENCODING 103
SWIDTH 500 0
DWIDTH 12 0
BBX 12 24 0 -2
BITMAP
0000
0000
0000
0000
0000
0000
0000
0000
0000
0e60
1f60
39e0
30e0
3060
3060
3060
38e0
1fe0
0f60
0060
0060
0060
0fc0
0780
ENDCHAR
STARTCHAR H
ENCODING 104
SWIDTH 500 0
DWIDTH 12 0
BBX 12 24 0 -2
BITMAP
0000
0000
0000
0000
0000
3000
3000
3000
3000
3380
37c0
3ce0
3860
3060
3060
3060
3060
3060
3060
0000
0000
0000
0000
0000
ENDCHAR
STARTCHAR I
ENCODING 105
SWIDTH 500 0
DWIDTH 12 0
BBX 12 24 0 -2
BITMAP
0000
0000
0000
0000
0000
0600
0600
0000
0000
0600
0600
0600
0600
0600
0600
0600
0600
0600
0600
0000
0000
0000
0000
0000
ENDCHAR
STARTCHAR J
ENCODING 106
SWIDTH 500 0
DWIDTH 12 0
BBX 12 24 0 -2
BITMAP
0000
0000
0000
0000
0000
0600
0600
0000
0000
0600
0600
0600
0600
0600
0600
0600
0600
0600
0600
0600
0600
3e00
3800
0000
ENDCHAR
STARTCHAR K
ENCODING 107
SWIDTH 500 0
DWIDTH 12 0
BBX 12 24 0 -2
BITMAP
0000
0000
0000
0000
0000
0000
3000
3000
30c0
31c0
3380
3700
3e00
3c00
3e00
3700
3380
31c0
30c0
0000
0000
0000
0000
0000
ENDCHAR
STARTCHAR L
ENCODING 108
SWIDTH 500 0
DWIDTH 12 0
BBX 12 24 0 -2
BITMAP
0000
0000
0000
0000
0000
0600
0600
0600
0600
0600
0600
0600
0600
0600
0600
0600
0600
0780
0380
0000
0000
0000
0000
0000
ENDCHAR
STARTCHAR M
ENCODING 109
SWIDTH 500 0
DWIDTH 12 0
BBX 12 24 0 -2
BITMAP
0000
0000
0000
0000
0000
0000
0000
0000
6000
6dc0
7fe0
6660
6660
6660
6660
6660
6660
6660
6660
0000
0000
0000
0000
0000
ENDCHAR
STARTCHAR N
ENCODING 110
SWIDTH 500 0
DWIDTH 12 0
BBX 12 24 0 -2
BITMAP
0000
0000
0000
0000
0000
0000
0000
0000
0000
3380
37c0
3c60
3860
3060
3060
3060
3060
3060
3060
0000
0000
0000
0000
0000
ENDCHAR
STARTCHAR O
ENCODING 111
SWIDTH 500 0
DWIDTH 12 0
BBX 12 24 0 -2
BITMAP
0000
0000
0000
0000
0000
0000
0000
0000
0000
0f80
1fc0
38e0
3060
3060
3060
3060
38e0
1fc0
0f80
0000
0000
0000
0000
0000
ENDCHAR
STARTCHAR P
ENCODING 112
SWIDTH 500 0
DWIDTH 12 0
BBX 12 24 0 -2
BITMAP
0000
0000
0000
0000
0000
0000
0000
0000
0000
3380
37c0
3ce0
3860
3060
3060
3860
3ce0
37c0
3380
3000
3000
3000
3000
0000
ENDCHAR
STARTCHAR Q
ENCODING 113
SWIDTH 500 0
DWIDTH 12 0
BBX 12 24 0 -2
BITMAP
0000
0000
0000
0000
0000
0000
0000
0000
0000
0e60
1f60
39e0
30e0
3060
3060
30e0
39e0
1f60
0e60
0060
0060
0060
0060
0000
ENDCHAR
STARTCHAR R
ENCODING 114
SWIDTH 500 0
DWIDTH 12 0
BBX 12 24 0 -2
BITMAP
0000
0000
0000
0000
0000
0000
0000
0000
0000
3380
37c0
3c60
3860
3000
3000
3000
3000
3000
3000
0000
0000
0000
0000
0000
ENDCHAR
STARTCHAR S
ENCODING 115
SWIDTH 500 0
DWIDTH 12 0
BBX 12 24 0 -2
BITMAP
0000
0000
0000
0000
0000
0000
0000
0000
0000
1fc0
3fe0
3020
3000
1f80
0fc0
0060
3060
3fe0
1fc0
0000
0000
0000
0000
0000
ENDCHAR
STARTCHAR T
ENCODING 116
SWIDTH 500 0
DWIDTH 12 0
BBX 12 24 0 -2
BITMAP
0000
0000
0000
0000
0000
0000
0600
0600
0600
1f80
1f80
0600
0600
0600
0600
0600
0600
0780
0380
0000
0000
0000
0000
0000
ENDCHAR
STARTCHAR U
ENCODING 117
SWIDTH 500 0
DWIDTH 12 0
BBX 12 24 0 -2
BITMAP
0000
0000
0000
0000
0000
0000
0000
0000
0000
3060
3060
3060
3060
3060
3060
30e0
39e0
1f60
0e60
0000
0000
0000
0000
0000
ENDCHAR
STARTCHAR V
ENCODING 118
SWIDTH 500 0
DWIDTH 12 0
BBX 12 24 0 -2
BITMAP
0000
0000
0000
0000
0000
0000
0000
0000
0000
6060
6060
30c0
30c0
1980
1980
0f00
0f00
0600
0600
0000
0000
0000
0000
0000
ENDCHAR
STARTCHAR W
ENCODING 119
SWIDTH 500 0
DWIDTH 12 0
BBX 12 24 0 -2
BITMAP
0000
0000
0000
0000
0000
0000
0000
0000
0000
3060
3060
3060
3060
3260
3760
3760
3de0
38e0
3060
0000
0000
0000
0000
0000
ENDCHAR
STARTCHAR X
ENCODING 120
SWIDTH 500 0
DWIDTH 12 0
BBX 12 24 0 -2
BITMAP
0000
0000
0000
0000
0000
0000
0000
0000
0000
3060
3060
18c0
0d80
0700
0700
0d80
18c0
3060
3060
0000
0000
0000
0000
0000
ENDCHAR
STARTCHAR Y
ENCODING 121
SWIDTH 500 0
DWIDTH 12 0
BBX 12 24 0 -2
BITMAP
0000
0000
0000
0000
0000
0000
0000
0000
0000
3060
3060
3060
3060
3060
3060
3060
30e0
1fe0
0f60
0060
0060
0060
1fc0
0f80
ENDCHAR
STARTCHAR Z
ENCODING 122
SWIDTH 500 0
DWIDTH 12 0
BBX 12 24 0 -2
BITMAP
0000
0000
0000
0000
0000
0000
0000
0000
0000
3fe0
3fe0
00c0
0180
0300
0600
0c00
1800
3fe0
3fe0
0000
0000
0000
0000
0000
ENDCHAR
STARTCHAR {
ENCODING 123
SWIDTH 500 0
DWIDTH 12 0
BBX 12 24 0 -2
BITMAP
0000
0000
0000
0000
0380
0600
0600
0600
0600
0600
0c00
1c00
0c00
0600
0600
0600
0600
0600
0380
0000
0000
0000
0000
0000
ENDCHAR
STARTCHAR |
ENCODING 124
SWIDTH 500 0
DWIDTH 12 0
BBX 12 24 0 -2
BITMAP
0000
0600
0600
0600
0600
0600
0600
0600
0600
0600
0600
0600
0600
0600
0600
0600
0600
0600
0600
0600
0600
0600
0600
0000
ENDCHAR
STARTCHAR }
ENCODING 125
SWIDTH 500 0
DWIDTH 12 0
BBX 12 24 0 -2
BITMAP
0000
0000
0000
0000
1c00
0600
0600
0600
0600
0600
0300
0380
0300
0600
0600
0600
0600
0600
1c00
0000
0000
0000
0000
0000
ENDCHAR
STARTCHAR ~
ENCODING 126
SWIDTH 500 0
DWIDTH 12 0
BBX 12 24 0 -2
BITMAP
0000
0000
0000
0000
1c20
3e60
27e0
61c0
0000
0000
0000
0000
0000
0000
0000
0000
0000
0000
0000
0000
0000
0000
0000
0000
ENDCHAR
STARTCHAR C200
ENCODING 128
SWIDTH 500 0
DWIDTH 12 0
BBX 12 24 0 -2
BITMAP
0000
0000
0000
0000
0000
0f80
1fc0
38e0
3060
3060
3060
3fe0
3fe0
3060
3060
3060
3060
3060
3060
0000
0300
0300
0000
0000
ENDCHAR
STARTCHAR C201
ENCODING 129
SWIDTH 500 0
DWIDTH 12 0
BBX 12 24 0 -2
BITMAP
0180
0300
0400
3060
1fc0
0f80
1fc0
38e0
3060
3060
3060
3fe0
3fe0
3060
3060
3060
3060
3060
3060
0000
0000
0000
0000
0000
ENDCHAR
STARTCHAR C202
ENCODING 130
SWIDTH 500 0
DWIDTH 12 0
BBX 12 24 0 -2
BITMAP
0c00
0600
0100
3060
1fc0
0f80
1fc0
38e0
3060
3060
3060
3fe0
3fe0
3060
3060
3060
3060
3060
3060
0000
0000
0000
0000
0000
ENDCHAR
STARTCHAR C203
ENCODING 131
SWIDTH 500 0
DWIDTH 12 0
BBX 12 24 0 -2
BITMAP
0000
0000
0000
3060
1fc0
0f80
1fc0
38e0
3060
3060
3060
3fe0
3fe0
3060
3060
3060
3060
3060
3060
0000
0300
0300
0000
0000
ENDCHAR
STARTCHAR C204
ENCODING 132
SWIDTH 500 0
DWIDTH 12 0
BBX 12 24 0 -2
BITMAP
0600
0c00
1200
0f80
18c0
2fa0
1fc0
38e0
3060
3060
3060
3fe0
3fe0
3060
3060
3060
3060
3060
3060
0000
0000
0000
0000
0000
ENDCHAR
STARTCHAR C205
ENCODING 133
SWIDTH 500 0
DWIDTH 12 0
BBX 12 24 0 -2
BITMAP
0300
0180
0240
0f80
18c0
2fa0
1fc0
38e0
3060
3060
3060
3fe0
3fe0
3060
3060
3060
3060
3060
3060
0000
0000
0000
0000
0000
ENDCHAR
STARTCHAR C206
ENCODING 134
SWIDTH 500 0
DWIDTH 12 0
BBX 12 24 0 -2
BITMAP
0700
0100
0200
0f80
18c0
2fa0
1fc0
38e0
3060
3060
3060
3fe0
3fe0
3060
3060
3060
3060
3060
3060
0000
0000
0000
0000
0000
ENDCHAR
STARTCHAR C207
ENCODING 135
SWIDTH 500 0
DWIDTH 12 0
BBX 12 24 0 -2
BITMAP
0000
0000
0200
0f80
18c0
2fa0
1fc0
38e0
3060
3060
3060
3fe0
3fe0
3060
3060
3060
3060
3060
3060
0000
0300
0300
0000
0000
ENDCHAR
STARTCHAR C210
ENCODING 136
SWIDTH 500 0
DWIDTH 12 0
BBX 12 24 0 -2
BITMAP
0000
1c20
2620
23c0
0000
3fe0
3fe0
3000
3000
3000
3000
3f80
3f80
3000
3000
3000
3000
3fe0
3fe0
0000
0000
0000
0000
0000
ENDCHAR
STARTCHAR C211
ENCODING 137
SWIDTH 500 0
DWIDTH 12 0
BBX 12 24 0 -2
BITMAP
0000
0000
0000
0000
0000
3fe0
3fe0
3000
3000
3000
3000
3f80
3f80
3000
3000
3000
3000
3fe0
3fe0
0000
0300
0300
0000
0000
ENDCHAR
STARTCHAR C212
ENCODING 138
SWIDTH 500 0
DWIDTH 12 0
BBX 12 24 0 -2
BITMAP
0600
0c00
1200
0f80
18c0
3fe0
3fe0
3000
3000
3000
3000
3f80
3f80
3000
3000
3000
3000
3fe0
3fe0
0000
0000
0000
0000
0000
ENDCHAR
STARTCHAR C213
ENCODING 139
SWIDTH 500 0
DWIDTH 12 0
BBX 12 24 0 -2
BITMAP
0300
0180
0240
0f80
18c0
3fe0
3fe0
3000
3000
3000
3000
3f80
3f80
3000
3000
3000
3000
3fe0
3fe0
0000
0000
0000
0000
0000
ENDCHAR
STARTCHAR C214
ENCODING 140
SWIDTH 500 0
DWIDTH 12 0
BBX 12 24 0 -2
BITMAP
0700
0100
0200
0f80
18c0
3fe0
3fe0
3000
3000
3000
3000
3f80
3f80
3000
3000
3000
3000
3fe0
3fe0
0000
0000
0000
0000
0000
ENDCHAR
STARTCHAR C215
ENCODING 141
SWIDTH 500 0
DWIDTH 12 0
BBX 12 24 0 -2
BITMAP
1c20
2620
23c0
0f80
18c0
3fe0
3fe0
3000
3000
3000
3000
3f80
3f80
3000
3000
3000
3000
3fe0
3fe0
0000
0000
0000
0000
0000
ENDCHAR
STARTCHAR C216
ENCODING 142
SWIDTH 500 0
DWIDTH 12 0
BBX 12 24 0 -2
BITMAP
0000
0000
0200
0f80
18c0
3fe0
3fe0
3000
3000
3000
3000
3f80
3f80
3000
3000
3000
3000
3fe0
3fe0
0000
0300
0300
0000
0000
ENDCHAR
STARTCHAR C217
ENCODING 143
SWIDTH 500 0
DWIDTH 12 0
BBX 12 24 0 -2
BITMAP
0600
0c00
1200
0f80
18c0
2fa0
1fc0
38e0
3060
3060
3060
3060
3060
3060
3060
3060
38e0
1fc0
0f80
0000
0000
0000
0000
0000
ENDCHAR
STARTCHAR C220
ENCODING 144
SWIDTH 500 0
DWIDTH 12 0
BBX 12 24 0 -2
BITMAP
0300
0180
0240
0f80
18c0
2fa0
1fc0
38e0
3060
3060
3060
3060
3060
3060
3060
3060
38e0
1fc0
0f80
0000
0000
0000
0000
0000
ENDCHAR
STARTCHAR C221
ENCODING 145
SWIDTH 500 0
DWIDTH 12 0
BBX 12 24 0 -2
BITMAP
0700
0100
0200
0f80
18c0
2fa0
1fc0
38e0
3060
3060
3060
3060
3060
3060
3060
3060
38e0
1fc0
0f80
0000
0000
0000
0000
0000
ENDCHAR
STARTCHAR C222
ENCODING 146
SWIDTH 500 0
DWIDTH 12 0
BBX 12 24 0 -2
BITMAP
1c20
2620
23c0
0f80
18c0
2fa0
1fc0
38e0
3060
3060
3060
3060
3060
3060
3060
3060
38e0
1fc0
0f80
0000
0000
0000
0000
0000
ENDCHAR
STARTCHAR C223
ENCODING 147
SWIDTH 500 0
DWIDTH 12 0
BBX 12 24 0 -2
BITMAP
0000
0000
0200
0f80
18c0
2fa0
1fc0
38e0
3060
3060
3060
3060
3060
3060
3060
3060
38e0
1fc0
0f80
0000
0300
0300
0000
0000
ENDCHAR
STARTCHAR C224
ENCODING 148
SWIDTH 500 0
DWIDTH 12 0
BBX 12 24 0 -2
BITMAP
0000
0000
0000
0030
0010
0fa0
1fc0
38e0
3060
3060
3060
3060
3060
3060
3060
3060
38e0
1fc0
0f80
0000
0300
0300
0000
0000
ENDCHAR
STARTCHAR C225
ENCODING 149
SWIDTH 500 0
DWIDTH 12 0
BBX 12 24 0 -2
BITMAP
0300
0600
0800
0030
0010
0fa0
1fc0
38e0
3060
3060
3060
3060
3060
3060
3060
3060
38e0
1fc0
0f80
0000
0000
0000
0000
0000
ENDCHAR
STARTCHAR C226
ENCODING 150
SWIDTH 500 0
DWIDTH 12 0
BBX 12 24 0 -2
BITMAP
0c00
0600
0100
0030
0010
0fa0
1fc0
38e0
3060
3060
3060
3060
3060
3060
3060
3060
38e0
1fc0
0f80
0000
0000
0000
0000
0000
ENDCHAR
STARTCHAR C227
ENCODING 151
SWIDTH 500 0
DWIDTH 12 0
BBX 12 24 0 -2
BITMAP
0700
0100
0200
0030
0010
0fa0
1fc0
38e0
3060
3060
3060
3060
3060
3060
3060
3060
38e0
1fc0
0f80
0000
0000
0000
0000
0000
ENDCHAR
STARTCHAR C230
ENCODING 152
SWIDTH 500 0
DWIDTH 12 0
BBX 12 24 0 -2
BITMAP
0000
0000
0000
0000
0000
1f80
1f80
0600
0600
0600
0600
0600
0600
0600
0600
0600
0600
1f80
1f80
0000
0600
0600
0000
0000
ENDCHAR
STARTCHAR C231
ENCODING 153
SWIDTH 500 0
DWIDTH 12 0
BBX 12 24 0 -2
BITMAP
0000
0700
0100
0200
0000
0f80
1fc0
38e0
3060
3060
3060
3060
3060
3060
3060
3060
38e0
1fc0
0f80
0000
0000
0000
0000
0000
ENDCHAR
STARTCHAR C232
ENCODING 154
SWIDTH 500 0
DWIDTH 12 0
BBX 12 24 0 -2
BITMAP
0000
0000
0000
0000
0000
0f80
1fc0
38e0
3060
3060
3060
3060
3060
3060
3060
3060
38e0
1fc0
0f80
0000
0300
0300
0000
0000
ENDCHAR
STARTCHAR C233
ENCODING 155
SWIDTH 500 0
DWIDTH 12 0
BBX 12 24 0 -2
BITMAP
0000
0700
0100
0200
0000
1f80
1f80
0600
0600
0600
0600
0600
0600
0600
0600
0600
0600
1f80
1f80
0000
0000
0000
0000
0000
ENDCHAR
STARTCHAR C234
ENCODING 156
SWIDTH 500 0
DWIDTH 12 0
BBX 12 24 0 -2
BITMAP
0000
0700
0100
0200
0000
3060
3060
3060
3060
3060
3060
3060
3060
3060
3060
3060
38e0
1fc0
0f80
0000
0000
0000
0000
0000
ENDCHAR
STARTCHAR C235
ENCODING 157
SWIDTH 500 0
DWIDTH 12 0
BBX 12 24 0 -2
BITMAP
0000
1c20
2620
23c0
0000
3060
3060
3060
3060
3060
3060
3060
3060
3060
3060
3060
38e0
1fc0
0f80
0000
0000
0000
0000
0000
ENDCHAR
STARTCHAR C236
ENCODING 158
SWIDTH 500 0
DWIDTH 12 0
BBX 12 24 0 -2
BITMAP
0000
0000
0000
0000
0000
3060
3060
3060
3060
3060
3060
3060
3060
3060
3060
3060
38e0
1fc0
0f80
0000
0300
0300
0000
0000
ENDCHAR
STARTCHAR C237
ENCODING 159
SWIDTH 500 0
DWIDTH 12 0
BBX 12 24 0 -2
BITMAP
0000
0c00
0600
0100
0000
6060
6060
30c0
30c0
1980
1f80
0f00
0600
0600
0600
0600
0600
0600
0600
0000
0000
0000
0000
0000
ENDCHAR
STARTCHAR C240
ENCODING 160
SWIDTH 500 0
DWIDTH 12 0
BBX 12 24 0 -2
BITMAP
0000
1c20
2620
23c0
0000
0f80
1fc0
38e0
3060
3060
3060
3060
3060
3060
3060
3060
38e0
1fc0
0f80
0000
0000
0000
0000
0000
ENDCHAR
STARTCHAR C241
ENCODING 161
SWIDTH 500 0
DWIDTH 12 0
BBX 12 24 0 -2
BITMAP
0000
0000
0000
0180
0300
0400
3060
1fc0
0780
0fc0
1860
0060
07e0
1fe0
3060
30e0
31e0
3f60
1e60
0000
0000
0000
0000
0000
ENDCHAR
STARTCHAR C242
ENCODING 162
SWIDTH 500 0
DWIDTH 12 0
BBX 12 24 0 -2
BITMAP
0000
0000
0000
0c00
0600
0100
3060
1fc0
0780
0fc0
1860
0060
07e0
1fe0
3060
30e0
31e0
3f60
1e60
0000
0000
0000
0000
0000
ENDCHAR
STARTCHAR C243
ENCODING 163
SWIDTH 500 0
DWIDTH 12 0
BBX 12 24 0 -2
BITMAP
0000
0000
0000
0000
0000
0000
3060
1fc0
0780
0fc0
1860
0060
07e0
1fe0
3060
30e0
31e0
3f60
1e60
0000
0300
0300
0000
0000
ENDCHAR
STARTCHAR C244
ENCODING 164
SWIDTH 500 0
DWIDTH 12 0
BBX 12 24 0 -2
BITMAP
0000
0000
0000
0600
0c00
1200
0f80
18c0
27a0
0fc0
1860
0060
07e0
1fe0
3060
30e0
31e0
3f60
1e60
0000
0000
0000
0000
0000
ENDCHAR
STARTCHAR C245
ENCODING 165
SWIDTH 500 0
DWIDTH 12 0
BBX 12 24 0 -2
BITMAP
0000
0000
0000
0300
0180
0240
0f80
18c0
27a0
0fc0
1860
0060
07e0
1fe0
3060
30e0
31e0
3f60
1e60
0000
0000
0000
0000
0000
ENDCHAR
STARTCHAR C246
ENCODING 166
SWIDTH 500 0
DWIDTH 12 0
BBX 12 24 0 -2
BITMAP
0000
0000
0000
0700
0100
0200
0f80
18c0
27a0
0fc0
1860
0060
07e0
1fe0
3060
30e0
31e0
3f60
1e60
0000
0000
0000
0000
0000
ENDCHAR
STARTCHAR C247
ENCODING 167
SWIDTH 500 0
DWIDTH 12 0
BBX 12 24 0 -2
BITMAP
0000
0000
0000
0000
0000
0200
0f80
18c0
27a0
0fc0
1860
0060
07e0
1fe0
3060
30e0
31e0
3f60
1e60
0000
0300
0300
0000
0000
ENDCHAR
STARTCHAR C250
ENCODING 168
SWIDTH 500 0
DWIDTH 12 0
BBX 12 24 0 -2
BITMAP
0000
0000
0000
0000
0000
1c20
2620
23c0
0000
0f80
1fc0
3860
3060
3fe0
3fe0
3000
3060
1fe0
0fc0
0000
0000
0000
0000
0000
ENDCHAR
STARTCHAR C251
ENCODING 169
SWIDTH 500 0
DWIDTH 12 0
BBX 12 24 0 -2
BITMAP
0000
0000
0000
0000
0000
0000
0000
0000
0000
0f80
1fc0
3860
3060
3fe0
3fe0
3000
3060
1fe0
0fc0
0000
0300
0300
0000
0000
ENDCHAR
STARTCHAR C252
ENCODING 170
SWIDTH 500 0
DWIDTH 12 0
BBX 12 24 0 -2
BITMAP
0000
0000
0000
0600
0c00
1200
0f80
18c0
2020
0f80
1fc0
3860
3060
3fe0
3fe0
3000
3060
1fe0
0fc0
0000
0000
0000
0000
0000
ENDCHAR
STARTCHAR C253
ENCODING 171
SWIDTH 500 0
DWIDTH 12 0
BBX 12 24 0 -2
BITMAP
0000
0000
0000
0300
0180
0240
0f80
18c0
2020
0f80
1fc0
3860
3060
3fe0
3fe0
3000
3060
1fe0
0fc0
0000
0000
0000
0000
0000
ENDCHAR
STARTCHAR C254
ENCODING 172
SWIDTH 500 0
DWIDTH 12 0
BBX 12 24 0 -2
BITMAP
0000
0000
0000
0700
0100
0200
0f80
18c0
2020
0f80
1fc0
3860
3060
3fe0
3fe0
3000
3060
1fe0
0fc0
0000
0000
0000
0000
0000
ENDCHAR
STARTCHAR C255
ENCODING 173
SWIDTH 500 0
DWIDTH 12 0
BBX 12 24 0 -2
BITMAP
0000
0000
0000
1c20
2620
23c0
0f80
18c0
2020
0f80
1fc0
3860
3060
3fe0
3fe0
3000
3060
1fe0
0fc0
0000
0000
0000
0000
0000
ENDCHAR
STARTCHAR C256
ENCODING 174
SWIDTH 500 0
DWIDTH 12 0
BBX 12 24 0 -2
BITMAP
0000
0000
0000
0000
0000
0200
0f80
18c0
2020
0f80
1fc0
3860
3060
3fe0
3fe0
3000
3060
1fe0
0fc0
0000
0300
0300
0000
0000
ENDCHAR
STARTCHAR C257
ENCODING 175
SWIDTH 500 0
DWIDTH 12 0
BBX 12 24 0 -2
BITMAP
0000
0000
0000
0600
0c00
1200
0f80
18c0
2020
0f80
1fc0
38e0
3060
3060
3060
3060
38e0
1fc0
0f80
0000
0000
0000
0000
0000
ENDCHAR
STARTCHAR C260
ENCODING 176
SWIDTH 500 0
DWIDTH 12 0
BBX 12 24 0 -2
BITMAP
0000
0000
0000
0300
0180
0240
0f80
18c0
2020
0f80
1fc0
38e0
3060
3060
3060
3060
38e0
1fc0
0f80
0000
0000
0000
0000
0000
ENDCHAR
STARTCHAR C261
ENCODING 177
SWIDTH 500 0
DWIDTH 12 0
BBX 12 24 0 -2
BITMAP
0000
0000
0000
0700
0100
0200
0f80
18c0
2020
0f80
1fc0
38e0
3060
3060
3060
3060
38e0
1fc0
0f80
0000
0000
0000
0000
0000
ENDCHAR
STARTCHAR C262
ENCODING 178
SWIDTH 500 0
DWIDTH 12 0
BBX 12 24 0 -2
BITMAP
0000
0000
0000
1c20
2620
23c0
0f80
18c0
2020
0f80
1fc0
38e0
3060
3060
3060
3060
38e0
1fc0
0f80
0000
0000
0000
0000
0000
ENDCHAR
STARTCHAR C263
ENCODING 179
SWIDTH 500 0
DWIDTH 12 0
BBX 12 24 0 -2
BITMAP
1c20
2620
23c0
0030
0010
0fa0
1fc0
38e0
3060
3060
3060
3060
3060
3060
3060
3060
38e0
1fc0
0f80
0000
0000
0000
0000
0000
ENDCHAR
STARTCHAR C264
ENCODING 180
SWIDTH 500 0
DWIDTH 12 0
BBX 12 24 0 -2
BITMAP
0000
0000
0000
0030
0010
0fa0
1fc0
38e0
3060
3060
3060
3060
3060
3060
3060
3060
38e0
1fc0
0f80
0000
0000
0000
0000
0000
ENDCHAR
STARTCHAR C265
ENCODING 181
SWIDTH 500 0
DWIDTH 12 0
BBX 12 24 0 -2
BITMAP
0000
0000
0000
0000
0000
0200
0f80
18c0
2020
0f80
1fc0
38e0
3060
3060
3060
3060
38e0
1fc0
0f80
0000
0300
0300
0000
0000
ENDCHAR
STARTCHAR C266
ENCODING 182
SWIDTH 500 0
DWIDTH 12 0
BBX 12 24 0 -2
BITMAP
0000
0000
0000
0000
0c00
0600
0100
0030
0010
0fa0
1fc0
38e0
3060
3060
3060
3060
38e0
1fc0
0f80
0000
0000
0000
0000
0000
ENDCHAR
STARTCHAR C267
ENCODING 183
SWIDTH 500 0
DWIDTH 12 0
BBX 12 24 0 -2
BITMAP
0000
0000
0000
0000
0700
0100
0200
0030
0010
0fa0
1fc0
38e0
3060
3060
3060
3060
38e0
1fc0
0f80
0000
0000
0000
0000
0000
ENDCHAR
STARTCHAR C270
ENCODING 184
SWIDTH 500 0
DWIDTH 12 0
BBX 12 24 0 -2
BITMAP
0000
0000
0000
0000
0000
0600
0600
0000
0000
0600
0600
0600
0600
0600
0600
0600
0600
0600
0600
0000
0600
0600
0000
0000
ENDCHAR
STARTCHAR C271
ENCODING 185
SWIDTH 500 0
DWIDTH 12 0
BBX 12 24 0 -2
BITMAP
0000
0000
0030
0010
0020
3060
3060
3060
3060
3060
3060
3060
3060
3060
3060
3060
38e0
1fc0
0f80
0000
0300
0300
0000
0000
ENDCHAR
STARTCHAR C272
ENCODING 186
SWIDTH 500 0
DWIDTH 12 0
BBX 12 24 0 -2
BITMAP
0300
0600
0830
0010
0020
3060
3060
3060
3060
3060
3060
3060
3060
3060
3060
3060
38e0
1fc0
0f80
0000
0000
0000
0000
0000
ENDCHAR
STARTCHAR C273
ENCODING 187
SWIDTH 500 0
DWIDTH 12 0
BBX 12 24 0 -2
BITMAP
0c00
0600
0130
0010
0020
3060
3060
3060
3060
3060
3060
3060
3060
3060
3060
3060
38e0
1fc0
0f80
0000
0000
0000
0000
0000
ENDCHAR
STARTCHAR C274
ENCODING 188
SWIDTH 500 0
DWIDTH 12 0
BBX 12 24 0 -2
BITMAP
0700
0100
0230
0010
0020
3060
3060
3060
3060
3060
3060
3060
3060
3060
3060
3060
38e0
1fc0
0f80
0000
0000
0000
0000
0000
ENDCHAR
STARTCHAR C275
ENCODING 189
SWIDTH 500 0
DWIDTH 12 0
BBX 12 24 0 -2
BITMAP
0000
0000
0000
0000
0000
0000
0000
0030
0010
0fa0
1fc0
38e0
3060
3060
3060
3060
38e0
1fc0
0f80
0000
0000
0000
0000
0000
ENDCHAR
STARTCHAR C276
ENCODING 190
SWIDTH 500 0
DWIDTH 12 0
BBX 12 24 0 -2
BITMAP
0000
0000
0000
0000
0180
0300
0400
0030
0010
0fa0
1fc0
38e0
3060
3060
3060
3060
38e0
1fc0
0f80
0000
0000
0000
0000
0000
ENDCHAR
STARTCHAR C277
ENCODING 191
SWIDTH 500 0
DWIDTH 12 0
BBX 12 24 0 -2
BITMAP
0000
0000
0030
0010
0020
3060
3060
3060
3060
3060
3060
3060
3060
3060
3060
3060
38e0
1fc0
0f80
0000
0000
0000
0000
0000
ENDCHAR
STARTCHAR C300
ENCODING 192
SWIDTH 500 0
DWIDTH 12 0
BBX 12 24 0 -2
BITMAP
0000
0600
0300
0080
0000
0f80
1fc0
38e0
3060
3060
3060
3fe0
3fe0
3060
3060
3060
3060
3060
3060
0000
0000
0000
0000
0000
ENDCHAR
STARTCHAR C301
ENCODING 193
SWIDTH 500 0
DWIDTH 12 0
BBX 12 24 0 -2
BITMAP
0000
0180
0300
0400
0000
0f80
1fc0
38e0
3060
3060
3060
3fe0
3fe0
3060
3060
3060
3060
3060
3060
0000
0000
0000
0000
0000
ENDCHAR
STARTCHAR C302
ENCODING 194
SWIDTH 500 0
DWIDTH 12 0
BBX 12 24 0 -2
BITMAP
0000
0200
0f80
18c0
2020
0f80
1fc0
38e0
3060
3060
3060
3fe0
3fe0
3060
3060
3060
3060
3060
3060
0000
0000
0000
0000
0000
ENDCHAR
STARTCHAR C303
ENCODING 195
SWIDTH 500 0
DWIDTH 12 0
BBX 12 24 0 -2
BITMAP
0000
1c20
2620
23c0
0000
0f80
1fc0
38e0
3060
3060
3060
3fe0
3fe0
3060
3060
3060
3060
3060
3060
0000
0000
0000
0000
0000
ENDCHAR
STARTCHAR C304
ENCODING 196
SWIDTH 500 0
DWIDTH 12 0
BBX 12 24 0 -2
BITMAP
0000
0700
0100
0200
0000
0f80
1fc0
38e0
3060
3060
3060
3fe0
3fe0
3060
3060
3060
3060
3060
3060
0000
0000
0000
0000
0000
ENDCHAR
STARTCHAR C305
ENCODING 197
SWIDTH 500 0
DWIDTH 12 0
BBX 12 24 0 -2
BITMAP
0000
0000
0000
3060
1fc0
0f80
1fc0
38e0
3060
3060
3060
3fe0
3fe0
3060
3060
3060
3060
3060
3060
0000
0000
0000
0000
0000
ENDCHAR
STARTCHAR C306
ENCODING 198
SWIDTH 500 0
DWIDTH 12 0
BBX 12 24 0 -2
BITMAP
0000
0000
0000
0700
0100
0200
3060
1fc0
0780
0fc0
1860
0060
07e0
1fe0
3060
30e0
31e0
3f60
1e60
0000
0000
0000
0000
0000
ENDCHAR
STARTCHAR C307
ENCODING 199
SWIDTH 500 0
DWIDTH 12 0
BBX 12 24 0 -2
BITMAP
0000
0000
0000
1c20
2620
23c0
3060
1fc0
0780
0fc0
1860
0060
07e0
1fe0
3060
30e0
31e0
3f60
1e60
0000
0000
0000
0000
0000
ENDCHAR
STARTCHAR C310
ENCODING 200
SWIDTH 500 0
DWIDTH 12 0
BBX 12 24 0 -2
BITMAP
0000
0c00
0600
0100
0000
3fe0
3fe0
3000
3000
3000
3000
3f80
3f80
3000
3000
3000
3000
3fe0
3fe0
0000
0000
0000
0000
0000
ENDCHAR
STARTCHAR C311
ENCODING 201
SWIDTH 500 0
DWIDTH 12 0
BBX 12 24 0 -2
BITMAP
0000
0300
0600
0800
0000
3fe0
3fe0
3000
3000
3000
3000
3f80
3f80
3000
3000
3000
3000
3fe0
3fe0
0000
0000
0000
0000
0000
ENDCHAR
STARTCHAR C312
ENCODING 202
SWIDTH 500 0
DWIDTH 12 0
BBX 12 24 0 -2
BITMAP
0000
0200
0f80
18c0
2020
3fe0
3fe0
3000
3000
3000
3000
3f80
3f80
3000
3000
3000
3000
3fe0
3fe0
0000
0000
0000
0000
0000
ENDCHAR
STARTCHAR C313
ENCODING 203
SWIDTH 500 0
DWIDTH 12 0
BBX 12 24 0 -2
BITMAP
0000
0700
0100
0200
0000
3fe0
3fe0
3000
3000
3000
3000
3f80
3f80
3000
3000
3000
3000
3fe0
3fe0
0000
0000
0000
0000
0000
ENDCHAR
STARTCHAR C314
ENCODING 204
SWIDTH 500 0
DWIDTH 12 0
BBX 12 24 0 -2
BITMAP
0000
0c00
0600
0100
0000
1f80
1f80
0600
0600
0600
0600
0600
0600
0600
0600
0600
0600
1f80
1f80
0000
0000
0000
0000
0000
ENDCHAR
STARTCHAR C315
ENCODING 205
SWIDTH 500 0
DWIDTH 12 0
BBX 12 24 0 -2
BITMAP
0000
0300
0600
0800
0000
1f80
1f80
0600
0600
0600
0600
0600
0600
0600
0600
0600
0600
1f80
1f80
0000
0000
0000
0000
0000
ENDCHAR
STARTCHAR C316
ENCODING 206
SWIDTH 500 0
DWIDTH 12 0
BBX 12 24 0 -2
BITMAP
0000
1c40
2640
2380
0000
1f80
1f80
0600
0600
0600
0600
0600
0600
0600
0600
0600
0600
1f80
1f80
0000
0000
0000
0000
0000
ENDCHAR
STARTCHAR C317
ENCODING 207
SWIDTH 500 0
DWIDTH 12 0
BBX 12 24 0 -2
BITMAP
0000
0000
0000
0000
0000
0600
0300
0080
0000
3060
3060
3060
3060
3060
3060
3060
30e0
1fe0
0f60
0060
0060
0060
1fc0
0f80
ENDCHAR
STARTCHAR C320
ENCODING 208
SWIDTH 500 0
DWIDTH 12 0
BBX 12 24 0 -2
BITMAP
0000
0000
0000
0000
0000
3f80
3fc0
30e0
3060
3060
3060
7e60
7e60
3060
3060
3060
30e0
3fc0
3f80
0000
0000
0000
0000
0000
ENDCHAR
STARTCHAR C321
ENCODING 209
SWIDTH 500 0
DWIDTH 12 0
BBX 12 24 0 -2
BITMAP
0000
0000
0000
0000
0300
0600
0830
0010
0020
3060
3060
3060
3060
3060
3060
30e0
39e0
1f60
0e60
0000
0000
0000
0000
0000
ENDCHAR
STARTCHAR C322
ENCODING 210
SWIDTH 500 0
DWIDTH 12 0
BBX 12 24 0 -2
BITMAP
0000
0600
0300
0080
0000
0f80
1fc0
38e0
3060
3060
3060
3060
3060
3060
3060
3060
38e0
1fc0
0f80
0000
0000
0000
0000
0000
ENDCHAR
STARTCHAR C323
ENCODING 211
SWIDTH 500 0
DWIDTH 12 0
BBX 12 24 0 -2
BITMAP
0000
0180
0300
0400
0000
0f80
1fc0
38e0
3060
3060
3060
3060
3060
3060
3060
3060
38e0
1fc0
0f80
0000
0000
0000
0000
0000
ENDCHAR
STARTCHAR C324
ENCODING 212
SWIDTH 500 0
DWIDTH 12 0
BBX 12 24 0 -2
BITMAP
0000
0200
0f80
18c0
2020
0f80
1fc0
38e0
3060
3060
3060
3060
3060
3060
3060
3060
38e0
1fc0
0f80
0000
0000
0000
0000
0000
ENDCHAR
STARTCHAR C325
ENCODING 213
SWIDTH 500 0
DWIDTH 12 0
BBX 12 24 0 -2
BITMAP
0000
0000
0000
0000
0000
0000
0000
0000
0780
0fc0
1860
0060
07e0
1fe0
3060
30e0
31e0
3f60
1e60
0000
0300
0300
0000
0000
ENDCHAR
STARTCHAR C326
ENCODING 214
SWIDTH 500 0
DWIDTH 12 0
BBX 12 24 0 -2
BITMAP
0000
0000
0000
0000
0000
0700
0100
0200
0000
3060
3060
3060
3060
3060
3060
3060
30e0
1fe0
0f60
0060
0060
0060
1fc0
0f80
ENDCHAR
STARTCHAR C327
ENCODING 215
SWIDTH 500 0
DWIDTH 12 0
BBX 12 24 0 -2
BITMAP
0000
0000
0000
0000
0c00
0600
0130
0010
0020
3060
3060
3060
3060
3060
3060
30e0
39e0
1f60
0e60
0000
0000
0000
0000
0000
ENDCHAR
STARTCHAR C330
ENCODING 216
SWIDTH 500 0
DWIDTH 12 0
BBX 12 24 0 -2
BITMAP
0000
0000
0000
0000
0700
0100
0230
0010
0020
3060
3060
3060
3060
3060
3060
30e0
39e0
1f60
0e60
0000
0000
0000
0000
0000
ENDCHAR
STARTCHAR C331
ENCODING 217
SWIDTH 500 0
DWIDTH 12 0
BBX 12 24 0 -2
BITMAP
0000
0600
0300
0080
0000
3060
3060
3060
3060
3060
3060
3060
3060
3060
3060
3060
38e0
1fc0
0f80
0000
0000
0000
0000
0000
ENDCHAR
STARTCHAR C332
ENCODING 218
SWIDTH 500 0
DWIDTH 12 0
BBX 12 24 0 -2
BITMAP
0000
0180
0300
0400
0000
3060
3060
3060
3060
3060
3060
3060
3060
3060
3060
3060
38e0
1fc0
0f80
0000
0000
0000
0000
0000
ENDCHAR
STARTCHAR C333
ENCODING 219
SWIDTH 500 0
DWIDTH 12 0
BBX 12 24 0 -2
BITMAP
0000
0000
0000
0000
0000
1c20
2620
23c0
0000
3060
3060
3060
3060
3060
3060
3060
30e0
1fe0
0f60
0060
0060
0060
1fc0
0f80
ENDCHAR
STARTCHAR C334
ENCODING 220
SWIDTH 500 0
DWIDTH 12 0
BBX 12 24 0 -2
BITMAP
0000
0000
0000
0000
0000
0000
0000
0000
0000
3060
3060
3060
3060
3060
3060
3060
30e0
1fe0
0f60
0060
0060
0040
1fb0
0fb0
ENDCHAR
STARTCHAR C335
ENCODING 221
SWIDTH 500 0
DWIDTH 12 0
BBX 12 24 0 -2
BITMAP
0000
0300
0600
0800
0000
6060
6060
30c0
30c0
1980
1f80
0f00
0600
0600
0600
0600
0600
0600
0600
0000
0000
0000
0000
0000
ENDCHAR
STARTCHAR C336
ENCODING 222
SWIDTH 500 0
DWIDTH 12 0
BBX 12 24 0 -2
BITMAP
0000
0000
0000
0000
1c20
2620
23c0
0030
0010
0fa0
1fc0
38e0
3060
3060
3060
3060
38e0
1fc0
0f80
0000
0000
0000
0000
0000
ENDCHAR
STARTCHAR C337
ENCODING 223
SWIDTH 500 0
DWIDTH 12 0
BBX 12 24 0 -2
BITMAP
0000
0000
0000
0000
0000
0000
0030
0010
0020
3060
3060
3060
3060
3060
3060
30e0
39e0
1f60
0e60
0000
0000
0000
0000
0000
ENDCHAR
STARTCHAR C340
ENCODING 224
SWIDTH 500 0
DWIDTH 12 0
BBX 12 24 0 -2
BITMAP
0000
0000
0000
0000
0600
0300
0080
0000
0780
0fc0
1860
0060
07e0
1fe0
3060
30e0
31e0
3f60
1e60
0000
0000
0000
0000
0000
ENDCHAR
STARTCHAR C341
ENCODING 225
SWIDTH 500 0
DWIDTH 12 0
BBX 12 24 0 -2
BITMAP
0000
0000
0000
0000
0180
0300
0400
0000
0780
0fc0
1860
0060
07e0
1fe0
3060
30e0
31e0
3f60
1e60
0000
0000
0000
0000
0000
ENDCHAR
STARTCHAR C342
ENCODING 226
SWIDTH 500 0
DWIDTH 12 0
BBX 12 24 0 -2
BITMAP
0000
0000
0000
0000
0000
0200
0f80
18c0
27a0
0fc0
1860
0060
07e0
1fe0
3060
30e0
31e0
3f60
1e60
0000
0000
0000
0000
0000
ENDCHAR
STARTCHAR C343
ENCODING 227
SWIDTH 500 0
DWIDTH 12 0
BBX 12 24 0 -2
BITMAP
0000
0000
0000
0000
1c20
2620
23c0
0000
0780
0fc0
1860
0060
07e0
1fe0
3060
30e0
31e0
3f60
1e60
0000
0000
0000
0000
0000
ENDCHAR
STARTCHAR C344
ENCODING 228
SWIDTH 500 0
DWIDTH 12 0
BBX 12 24 0 -2
BITMAP
0000
0000
0000
0000
0700
0100
0200
0000
0780
0fc0
1860
0060
07e0
1fe0
3060
30e0
31e0
3f60
1e60
0000
0000
0000
0000
0000
ENDCHAR
STARTCHAR C345
ENCODING 229
SWIDTH 500 0
DWIDTH 12 0
BBX 12 24 0 -2
BITMAP
0000
0000
0000
0000
0000
0000
3060
1fc0
0780
0fc0
1860
0060
07e0
1fe0
3060
30e0
31e0
3f60
1e60
0000
0000
0000
0000
0000
ENDCHAR
STARTCHAR C346
ENCODING 230
SWIDTH 500 0
DWIDTH 12 0
BBX 12 24 0 -2
BITMAP
0000
0000
0000
1c20
2620
23c0
0030
0010
0020
3060
3060
3060
3060
3060
3060
30e0
39e0
1f60
0e60
0000
0000
0000
0000
0000
ENDCHAR
STARTCHAR C347
ENCODING 231
SWIDTH 500 0
DWIDTH 12 0
BBX 12 24 0 -2
BITMAP
0000
0000
0000
1c20
2620
23c0
0f80
18c0
27a0
0fc0
1860
0060
07e0
1fe0
3060
30e0
31e0
3f60
1e60
0000
0000
0000
0000
0000
ENDCHAR
STARTCHAR C350
ENCODING 232
SWIDTH 500 0
DWIDTH 12 0
BBX 12 24 0 -2
BITMAP
0000
0000
0000
0000
0000
0600
0300
0080
0000
0f80
1fc0
3860
3060
3fe0
3fe0
3000
3060
1fe0
0fc0
0000
0000
0000
0000
0000
ENDCHAR
STARTCHAR C351
ENCODING 233
SWIDTH 500 0
DWIDTH 12 0
BBX 12 24 0 -2
BITMAP
0000
0000
0000
0000
0000
0180
0300
0400
0000
0f80
1fc0
3860
3060
3fe0
3fe0
3000
3060
1fe0
0fc0
0000
0000
0000
0000
0000
ENDCHAR
STARTCHAR C352
ENCODING 234
SWIDTH 500 0
DWIDTH 12 0
BBX 12 24 0 -2
BITMAP
0000
0000
0000
0000
0000
0200
0f80
18c0
2020
0f80
1fc0
3860
3060
3fe0
3fe0
3000
3060
1fe0
0fc0
0000
0000
0000
0000
0000
ENDCHAR
STARTCHAR C353
ENCODING 235
SWIDTH 500 0
DWIDTH 12 0
BBX 12 24 0 -2
BITMAP
0000
0000
0000
0000
0000
0700
0100
0200
0000
0f80
1fc0
3860
3060
3fe0
3fe0
3000
3060
1fe0
0fc0
0000
0000
0000
0000
0000
ENDCHAR
STARTCHAR C354
ENCODING 236
SWIDTH 500 0
DWIDTH 12 0
BBX 12 24 0 -2
BITMAP
0000
0000
0000
0000
0c00
0600
0100
0000
0000
0600
0600
0600
0600
0600
0600
0600
0600
0600
0600
0000
0000
0000
0000
0000
ENDCHAR
STARTCHAR C355
ENCODING 237
SWIDTH 500 0
DWIDTH 12 0
BBX 12 24 0 -2
BITMAP
0000
0000
0000
0000
0300
0600
0800
0000
0000
0600
0600
0600
0600
0600
0600
0600
0600
0600
0600
0000
0000
0000
0000
0000
ENDCHAR
STARTCHAR C356
ENCODING 238
SWIDTH 500 0
DWIDTH 12 0
BBX 12 24 0 -2
BITMAP
0000
0000
0000
0000
1c40
2640
2380
0000
0000
0600
0600
0600
0600
0600
0600
0600
0600
0600
0600
0000
0000
0000
0000
0000
ENDCHAR
STARTCHAR C357
ENCODING 239
SWIDTH 500 0
DWIDTH 12 0
BBX 12 24 0 -2
BITMAP
0000
0000
0000
0000
0700
0100
0200
0000
0000
0600
0600
0600
0600
0600
0600
0600
0600
0600
0600
0000
0000
0000
0000
0000
ENDCHAR
STARTCHAR C360
ENCODING 240
SWIDTH 500 0
DWIDTH 12 0
BBX 12 24 0 -2
BITMAP
0000
0000
0000
00c0
00c0
07e0
07e0
00c0
00c0
1ec0
3fc0
71c0
60c0
60c0
60c0
61c0
63c0
3ec0
1cc0
0000
0000
0000
0000
0000
ENDCHAR
STARTCHAR C361
ENCODING 241
SWIDTH 500 0
DWIDTH 12 0
BBX 12 24 0 -2
BITMAP
0000
0000
0000
0000
0000
0000
0030
0010
0020
3060
3060
3060
3060
3060
3060
30e0
39e0
1f60
0e60
0000
0300
0300
0000
0000
ENDCHAR
STARTCHAR C362
ENCODING 242
SWIDTH 500 0
DWIDTH 12 0
BBX 12 24 0 -2
BITMAP
0000
0000
0000
0000
0000
0600
0300
0080
0000
0f80
1fc0
38e0
3060
3060
3060
3060
38e0
1fc0
0f80
0000
0000
0000
0000
0000
ENDCHAR
STARTCHAR C363
ENCODING 243
SWIDTH 500 0
DWIDTH 12 0
BBX 12 24 0 -2
BITMAP
0000
0000
0000
0000
0000
0180
0300
0400
0000
0f80
1fc0
38e0
3060
3060
3060
3060
38e0
1fc0
0f80
0000
0000
0000
0000
0000
ENDCHAR
STARTCHAR C364
ENCODING 244
SWIDTH 500 0
DWIDTH 12 0
BBX 12 24 0 -2
BITMAP
0000
0000
0000
0000
0000
0200
0f80
18c0
2020
0f80
1fc0
38e0
3060
3060
3060
3060
38e0
1fc0
0f80
0000
0000
0000
0000
0000
ENDCHAR
STARTCHAR C365
ENCODING 245
SWIDTH 500 0
DWIDTH 12 0
BBX 12 24 0 -2
BITMAP
0000
0000
0000
0000
0000
1c20
2620
23c0
0000
0f80
1fc0
38e0
3060
3060
3060
3060
38e0
1fc0
0f80
0000
0000
0000
0000
0000
ENDCHAR
STARTCHAR C366
ENCODING 246
SWIDTH 500 0
DWIDTH 12 0
BBX 12 24 0 -2
BITMAP
0000
0000
0000
0000
0000
0700
0100
0200
0000
0f80
1fc0
38e0
3060
3060
3060
3060
38e0
1fc0
0f80
0000
0000
0000
0000
0000
ENDCHAR
STARTCHAR C367
ENCODING 247
SWIDTH 500 0
DWIDTH 12 0
BBX 12 24 0 -2
BITMAP
0000
0000
0000
0000
0000
0000
0000
0000
0000
0f80
1fc0
38e0
3060
3060
3060
3060
38e0
1fc0
0f80
0000
0300
0300
0000
0000
ENDCHAR
STARTCHAR C370
ENCODING 248
SWIDTH 500 0
DWIDTH 12 0
BBX 12 24 0 -2
BITMAP
0000
0000
0000
0000
0000
0000
0000
0000
0000
3060
3060
3060
3060
3060
3060
30e0
39e0
1f60
0e60
0000
0300
0300
0000
0000
ENDCHAR
STARTCHAR C371
ENCODING 249
SWIDTH 500 0
DWIDTH 12 0
BBX 12 24 0 -2
BITMAP
0000
0000
0000
0000
0000
0600
0300
0080
0000
3060
3060
3060
3060
3060
3060
30e0
39e0
1f60
0e60
0000
0000
0000
0000
0000
ENDCHAR
STARTCHAR C372
ENCODING 250
SWIDTH 500 0
DWIDTH 12 0
BBX 12 24 0 -2
BITMAP
0000
0000
0000
0000
0000
0180
0300
0400
0000
3060
3060
3060
3060
3060
3060
30e0
39e0
1f60
0e60
0000
0000
0000
0000
0000
ENDCHAR
STARTCHAR C373
ENCODING 251
SWIDTH 500 0
DWIDTH 12 0
BBX 12 24 0 -2
BITMAP
0000
0000
0000
0000
0000
1c20
2620
23c0
0000
3060
3060
3060
3060
3060
3060
30e0
39e0
1f60
0e60
0000
0000
0000
0000
0000
ENDCHAR
STARTCHAR C374
ENCODING 252
SWIDTH 500 0
DWIDTH 12 0
BBX 12 24 0 -2
BITMAP
0000
0000
0000
0000
0000
0700
0100
0200
0000
3060
3060
3060
3060
3060
3060
30e0
39e0
1f60
0e60
0000
0000
0000
0000
0000
ENDCHAR
STARTCHAR C375
ENCODING 253
SWIDTH 500 0
DWIDTH 12 0
BBX 12 24 0 -2
BITMAP
0000
0000
0000
0000
0000
0180
0300
0400
0000
3060
3060
3060
3060
3060
3060
3060
30e0
1fe0
0f60
0060
0060
0060
1fc0
0f80
ENDCHAR
STARTCHAR C376
ENCODING 254
SWIDTH 500 0
DWIDTH 12 0
BBX 12 24 0 -2
BITMAP
0000
0000
0000
0000
0000
0000
0000
0030
0010
0fa0
1fc0
38e0
3060
3060
3060
3060
38e0
1fc0
0f80
0000
0300
0300
0000
0000
ENDCHAR
STARTCHAR C377
ENCODING 255
SWIDTH 500 0
DWIDTH 12 0
BBX 12 24 0 -2
BITMAP
1c20
2620
23c0
0030
0010
3020
3060
3060
3060
3060
3060
3060
3060
3060
3060
3060
38e0
1fc0
0f80
0000
0000
0000
0000
0000
ENDCHAR
ENDFONT
